<svg width="512" height="512" viewBox="0 0 512 512" fill="none" xmlns="http://www.w3.org/2000/svg">
<g clip-path="url(#clip0_201_127)">
<path fill-rule="evenodd" clip-rule="evenodd" d="M228.762 1.973C227.383 3.057 222.125 11.604 217.078 20.964C212.03 30.324 207.012 38.458 205.927 39.039C198.741 42.885 138.349 67 135.904 67C134.242 67 125.422 64.75 116.304 62C107.186 59.25 98.126 57 96.171 57C92.898 57 91.206 58.411 74.808 74.808C58.749 90.868 57 92.949 57 96C57 97.86 59.25 106.948 62 116.194C64.75 125.44 67 134.355 67 136.005C67 139.195 39.86 205.623 37.747 207.603C37.061 208.246 29.3 212.673 20.5 217.44C11.7 222.208 3.487 227.234 2.25 228.61C0.0439999 231.063 0 231.598 0 256C0 280.38 0.046 280.941 2.25 283.464C3.487 284.881 12.15 290.193 21.5 295.27L38.5 304.5L52.701 338.5C60.511 357.2 66.924 373.909 66.951 375.63C66.978 377.352 64.75 386.338 62 395.599C59.25 404.86 57 414 57 415.911C57 419.078 58.567 420.951 74.808 437.192C90.868 453.251 92.949 455 96 455C97.86 455 106.948 452.75 116.194 450C125.44 447.25 134.337 445 135.966 445C138.75 445 202.187 470.581 206.5 473.443C207.6 474.173 212.482 482.25 217.35 491.391C222.217 500.533 227.341 508.909 228.735 510.006C231.112 511.876 232.809 512 256.079 512C280.378 512 280.942 511.954 283.464 509.75C284.881 508.513 290.193 499.853 295.27 490.508L304.5 473.515L338.5 459.333C357.2 451.532 373.867 445.116 375.537 445.075C377.207 445.034 386.191 447.25 395.5 450C404.809 452.75 414.004 455 415.932 455C419.142 455 420.94 453.498 437.219 437.219C453.642 420.797 455 419.165 455 415.856C455 413.886 452.75 404.814 450 395.696C447.25 386.578 445.033 377.629 445.073 375.809C445.114 373.956 451.387 357.543 459.334 338.501L473.521 304.501L490.511 295.296C501.013 289.605 508.55 284.846 510.25 282.833L513 279.576V254.621C513 240.896 512.729 229.938 512.397 230.27C512.066 230.601 510.828 229.783 509.647 228.452C508.466 227.121 499.852 221.863 490.504 216.766L473.508 207.5L459.303 173.5C451.136 153.952 445.078 138.094 445.049 136.191C445.022 134.371 447.25 125.422 450 116.304C452.75 107.186 455 98.126 455 96.171C455 92.898 453.589 91.206 437.192 74.808C421.009 58.625 419.07 57 415.942 57.002C414.049 57.003 405.075 59.246 396 61.986C386.925 64.726 378.022 66.975 376.215 66.984C372.786 67.001 305.862 39.762 304.143 37.65C303.628 37.017 299.283 29.179 294.487 20.231C289.691 11.283 284.634 3.071 283.249 1.981C280.893 0.128 279.137 0 256 0C232.899 0 231.105 0.13 228.762 1.973ZM234 56.036C182.489 62.288 134.909 87.625 102.867 125.867C35.048 206.806 39.818 324.283 113.918 398.037C144.554 428.529 181.452 447.404 224.622 454.667C240.693 457.37 274.11 457.12 290.257 454.176C346.547 443.911 393.862 412.634 424.722 365.291C439.565 342.519 449.721 316.142 454.672 287.5C457.09 273.508 457.09 238.492 454.672 224.5C443.66 160.798 406.844 109.167 350.575 78.515C333.353 69.134 309.323 61.047 288 57.457C276.777 55.568 244.793 54.726 234 56.036ZM238.5 73.635C197.533 78.094 158.868 95.939 129.871 123.771C112.735 140.218 100.785 156.698 90.909 177.5C60.097 242.404 70.309 319.496 117.004 374.504C120.741 378.906 124.744 383.363 125.899 384.409L128 386.31V334.655V283L122.25 282.995C118.041 282.991 115.528 282.388 112.873 280.745C108.878 278.272 95.89 263.622 93.367 258.742C91.273 254.694 91.333 247.208 93.495 242.653C94.714 240.082 117.451 219.123 171.075 171.136C254.561 96.427 250.474 99.58 260.547 102.116C264.426 103.093 269.092 106.834 292.297 127.574L319.5 151.887L320.095 145.977C320.863 138.348 324.325 132.99 330.379 130.059C334.601 128.015 336.066 127.895 353.272 128.188C371.299 128.494 371.733 128.552 375.706 131.184C378.143 132.799 380.603 135.614 381.879 138.25C383.911 142.448 384 144.037 384 176.143V209.654L400.627 224.508C418.374 240.363 420.231 242.879 420.231 251.071C420.231 256.985 418.589 260.019 409.895 270.166C400.516 281.112 397.24 283.165 389.748 282.789L383.996 282.5L384.044 334.5L384.092 386.5L389.646 380.5C445.254 320.427 454.509 231.766 412.516 161.397C400.801 141.766 381.115 120.511 361.912 106.76C342.059 92.542 313.637 80.551 288.929 75.97C277.767 73.9 248.512 72.546 238.5 73.635ZM184 184.065C144.675 219.292 111.914 248.691 111.197 249.396C110.13 250.445 110.946 251.965 115.697 257.778C118.889 261.683 121.779 264.793 122.119 264.689C122.46 264.585 151.618 238.625 186.915 207C222.211 175.375 252.195 149.125 253.545 148.667C254.895 148.208 257.112 148.208 258.472 148.667C259.831 149.125 289.866 175.375 325.216 207C360.565 238.625 389.754 264.5 390.08 264.5C391.439 264.5 402.178 250.786 401.376 250.074C393.613 243.187 269.41 131.674 264.063 126.791C259.972 123.056 256.372 120.003 256.063 120.008C255.753 120.012 223.325 148.838 184 184.065ZM338.008 157.25L338.015 168.5L349.708 179C356.139 184.775 362.436 190.32 363.701 191.323L366 193.145V169.573V146H352H338L338.008 157.25ZM200.729 219.092L145.957 268.148L146.229 332.661L146.5 397.174L149.306 399.587L152.112 402H181.003H209.894L210.197 362.25C210.535 317.953 210.379 319.021 217.653 310.954C219.769 308.606 223.75 305.636 226.5 304.353C231.31 302.108 232.429 302.02 256 302.02C279.571 302.02 280.69 302.108 285.5 304.353C288.25 305.636 292.231 308.606 294.347 310.954C301.621 319.021 301.465 317.953 301.803 362.25L302.106 402H330.997H359.888L362.694 399.587L365.5 397.174V332.393V267.613L311 218.807C281.025 191.964 256.275 170.009 256 170.018C255.725 170.028 230.853 192.111 200.729 219.092ZM0.435 256C0.435 270.025 0.575 275.762 0.747 268.75C0.919 261.738 0.919 250.262 0.747 243.25C0.575 236.238 0.435 241.975 0.435 256ZM233.5 321.208C229.063 323.752 229.065 323.736 229.032 363.75L229 402H256H283L282.968 363.75C282.935 323.483 282.951 323.632 278.316 321.163C275.328 319.572 236.284 319.611 233.5 321.208ZM181.417 422.66C187.083 425.727 205.645 431.821 217.251 434.424C249.471 441.649 281.761 439.86 314.059 429.061C320.562 426.887 327.597 424.204 329.691 423.098L333.5 421.088L256 421.084C184.813 421.08 178.738 421.209 181.417 422.66Z" fill="white"/>
</g>
<defs>
<clipPath id="clip0_201_127">
<rect width="512" height="512" fill="white"/>
</clipPath>
</defs>
</svg>
