<svg width="512" height="512" viewBox="0 0 512 512" fill="none" xmlns="http://www.w3.org/2000/svg">
<path fill-rule="evenodd" clip-rule="evenodd" d="M166 24.627C103.475 32.477 52.008 71.495 28.513 128.86C21.062 147.053 17.32 164.465 16.342 185.5C13.66 243.187 41.787 298.762 90.379 331.786C99.458 337.957 100.348 338.352 101.379 336.674C106.146 328.909 110.491 322.723 113.896 318.855L117.898 314.309L108.462 308.13C96.985 300.616 82.102 286.593 73.359 275.057C65.501 264.689 55.005 243.796 51.478 231.5C43.766 204.619 44.342 173.535 53.027 148C69.504 99.551 111.43 63.899 161.831 55.478C176.958 52.951 202.662 53.824 216.5 57.336C242.795 64.009 263.611 75.67 281.975 94.015C301.899 113.918 314.311 136.813 320.458 165C321.358 169.125 322.351 179.25 322.666 187.5C323.31 204.397 321.322 219.619 316.527 234.5C312.689 246.412 302.91 265.371 295.607 275.057C286.915 286.586 272.508 300.153 260.722 307.906L251.025 314.285L254.592 318.233C256.554 320.405 260.406 325.623 263.152 329.83C265.898 334.036 268.299 337.633 268.489 337.823C269.022 338.355 279.791 331.299 286.729 325.872C290.154 323.192 293.418 321 293.981 321C294.545 321 306.311 332.147 320.128 345.772L345.249 370.544L342.534 374.522C340.198 377.943 339.873 379.283 340.211 384.091C340.462 387.661 341.309 390.558 342.552 392.106C346.848 397.452 437.356 484.62 440.304 486.25C444.123 488.362 450.108 488.513 453.825 486.59C458.024 484.419 492.991 448.265 494.587 444.445C496.359 440.206 496.377 436.837 494.651 432.707C493.266 429.392 399.495 337.405 395.107 335.057C392.177 333.489 384.863 333.481 381.84 335.042C380.553 335.706 378.48 337.179 377.233 338.315L374.967 340.38L349.239 314.94C335.089 300.948 323.375 289.211 323.208 288.857C323.041 288.504 324.766 285.354 327.041 281.857C336.523 267.281 345.856 244.153 349.378 226.5C355.436 196.145 353.722 168.136 344.019 138.901C327.447 88.97 287.738 49.158 238 32.609C219.762 26.54 209.779 24.911 188.5 24.529C178.05 24.341 167.925 24.385 166 24.627ZM160.5 72.014C123.185 79.666 91.756 103.733 74.606 137.789C58.146 170.475 57.787 211.213 73.664 244.759C78.696 255.392 94.128 277.437 95.424 275.845C95.578 275.655 96.252 273.267 96.92 270.537C97.589 267.808 99.639 262.321 101.476 258.345C112.881 233.66 132.743 216.598 159.718 208.312C167.7 205.861 169.958 205.615 184.5 205.615C199.045 205.615 201.299 205.86 209.288 208.314C239.719 217.661 262.168 239.344 271.083 268C272.367 272.125 273.516 275.655 273.637 275.845C274.066 276.517 280.044 269.407 284.968 262.367C295.368 247.5 302.583 229.603 305.613 211.156C307.52 199.545 307.025 178.35 304.584 167.142C296.748 131.155 273.798 100.851 241.507 83.851C230.354 77.98 220.853 74.627 207.843 71.971C195.055 69.361 173.342 69.381 160.5 72.014ZM170.487 104.745C148.324 112.647 135.476 133.443 139.027 155.669C144.348 188.978 182.024 205.523 210.005 186.838C239.561 167.101 236.289 123.114 204.081 107.195C197.126 103.758 195.957 103.501 186.072 103.239C177.909 103.022 174.358 103.365 170.487 104.745ZM175.679 303.064C144.339 306.667 118.622 328.732 109.836 359.557C106.891 369.887 106.67 389.09 109.381 398.942C118.898 433.521 149.25 456.965 184.5 456.965C223.186 456.965 255.384 428.82 261.054 390.047C264.87 363.945 253.616 336.27 232.195 319.078C217.011 306.892 195.472 300.789 175.679 303.064ZM216 346.105C214.625 346.643 204.625 355.936 193.777 366.755L174.054 386.427L164.277 376.847C158.9 371.577 153.448 366.938 152.163 366.538C143.62 363.877 134.927 373.259 138.422 381.368C139.164 383.091 146.494 391.137 154.711 399.25L169.65 414H174.521H179.391L200.303 393.25C227.81 365.956 231 362.155 231 356.671C231 351.57 228.878 348.265 224.401 346.394C220.567 344.792 219.453 344.754 216 346.105Z" fill="white"/>
</svg>
