<svg width="512" height="512" viewBox="0 0 512 512" fill="none" xmlns="http://www.w3.org/2000/svg">
<g clip-path="url(#clip0_201_135)">
<path fill-rule="evenodd" clip-rule="evenodd" d="M40.4422 1.40997C37.8202 2.55197 7.52421 35.579 2.19721 43.103C0.613211 45.341 0.500211 60.677 0.500211 273.578V501.656L3.38221 505.434C8.31021 511.895 9.02221 512.003 46.7182 511.978C84.7472 511.953 86.5792 511.653 90.8452 504.75L93.0002 501.264V332.632V164H141H189V181V198H166.148C144.055 198 143.183 198.075 139.898 200.27C132.477 205.228 132.954 196.714 133.242 319C133.491 424.668 133.566 428.598 135.398 431.301C139.516 437.377 129.093 437 293.046 437C459.354 437 446.432 437.524 450.614 430.614C452.432 427.612 452.5 423.461 452.5 315.273V203.045L449.844 200.389L447.188 197.733L414.844 197.617L382.5 197.5V180.5V163.5L422.603 163L462.706 162.5L484.44 148.041C505.383 134.108 510.719 129.755 511.246 126.173C511.381 125.253 511.721 208.65 512 311.5L512.508 498.5L512.517 273C512.522 148.975 512.402 63.691 512.25 83.481C511.982 118.411 511.923 119.36 510.237 115.981C508.899 113.299 504.137 109.555 489.5 99.678C479.05 92.625 468.25 85.542 465.5 83.937L460.5 81.019L276.75 81.009L93.0002 81L92.9652 63.25C92.9412 51.249 92.5362 44.795 91.7152 43.323C91.0472 42.125 82.8752 32.503 73.5552 21.94C62.5732 9.49297 55.4592 2.25397 53.3372 1.36797C49.2522 -0.339031 44.4222 -0.323031 40.4422 1.40997ZM0.491211 274C0.491211 398.025 0.608211 448.762 0.750211 386.75C0.892211 324.737 0.892211 223.262 0.750211 161.25C0.608211 99.237 0.491211 149.975 0.491211 274ZM213 181V198H285.5H358V181V164H285.5H213V181ZM241 257.553C188.438 291.139 188.222 291.287 187.016 294.458C185.85 297.524 187.47 302.646 190.039 304.021C192.498 305.337 196.646 305.257 199.316 303.843C200.517 303.207 220.915 290.397 244.645 275.378C268.375 260.358 288.202 247.942 288.704 247.785C289.581 247.511 305.008 257.141 356.127 289.872C381.805 306.313 383.942 307.148 388.545 302.545C391.665 299.426 391.749 294.941 388.75 291.622C387.512 290.253 365.277 275.603 339.338 259.066C300.992 234.62 291.552 229.011 288.838 229.059C286.228 229.106 275.792 235.322 241 257.553ZM254.986 281.055C214.675 307.375 210.798 309.994 209.282 311.938C208.367 313.111 208.056 324.51 208.032 357.661L208 401.822L211.099 404.43L214.197 407.037L289.571 406.768L364.945 406.5L367.223 404.223L369.5 401.946L369.78 357.522L370.06 313.098L367.28 310.138C363.625 306.247 293.584 261.067 290.137 260.377C287.928 259.936 281.921 263.469 254.986 281.055Z" fill="white"/>
</g>
<defs>
<clipPath id="clip0_201_135">
<rect width="512" height="512" fill="white"/>
</clipPath>
</defs>
</svg>
