<svg width="513" height="512" viewBox="0 0 513 512" fill="none" xmlns="http://www.w3.org/2000/svg">
<g clip-path="url(#clip0_201_94)">
<path fill-rule="evenodd" clip-rule="evenodd" d="M238.5 1.52006C201.547 7.28706 168.461 31.3861 151.585 64.8291C146.994 73.9281 141.828 90.1631 140.436 99.8671C138.759 111.558 139.769 135.238 142.365 145.109C153.127 186.025 182.249 217.062 221.496 229.443C280.451 248.041 344.381 216.938 366.216 159.035C371.036 146.252 372.614 138.079 373.2 122.867C373.553 113.706 373.315 105.104 372.564 99.8671C371.172 90.1631 366.006 73.9281 361.415 64.8291C338.564 19.5461 288.437 -6.27194 238.5 1.52006ZM238.5 31.9471C182.977 43.7461 153.2 104.544 177.96 155.555C195.458 191.604 235.02 211.192 274 203.107C335.296 190.392 363.599 120.111 328.457 67.8781C319.704 54.8681 304.321 42.4581 289.404 36.3731C274.29 30.2071 254.702 28.5041 238.5 31.9471ZM242.5 46.4501C227.071 49.7601 216.973 55.3351 205.442 66.9091C191.098 81.3091 184.5 97.2481 184.5 117.5C184.5 138.071 191.079 153.74 205.93 168.537C213.238 175.819 216.652 178.387 223.5 181.756C235.877 187.843 242.863 189.463 256.5 189.409C270.126 189.355 277.3 187.688 289.5 181.739C296.417 178.366 299.683 175.91 307.04 168.547C321.933 153.643 328.5 138.021 328.5 117.5C328.5 96.9291 321.921 81.2601 307.07 66.4631C293.007 52.4501 278.851 46.2651 259 45.4601C252.7 45.2051 246.595 45.5711 242.5 46.4501ZM79 51.1541C76.207 52.7951 75.533 54.0371 75.515 57.5761C75.495 61.7221 77.223 63.1271 95.556 73.8781C111.751 83.3741 115.745 84.6451 118.727 81.2501C121.302 78.3171 121.807 75.1171 120.104 72.5181C118.323 69.8011 87.336 51.0841 83.514 50.4171C82.131 50.1761 80.1 50.5071 79 51.1541ZM426.5 51.3231C418.817 55.3491 394.629 70.1401 393.497 71.5031C389.926 75.8061 393.527 83.0001 399.251 83.0001C401.731 83.0001 431.744 66.2291 435.56 62.7111C437.508 60.9151 438.183 55.5681 436.735 53.4001C435.795 51.9921 432.024 49.9981 430.316 50.0061C429.592 50.0101 427.875 50.6021 426.5 51.3231ZM293.965 82.9611C292.845 83.4101 281.42 95.0621 268.576 108.855L245.222 133.932L236.125 124.216C220.46 107.485 219.922 107 217.052 107C215.576 107 213.545 107.441 212.539 107.979C210.143 109.262 208.561 113.933 209.586 116.703C210.715 119.754 239.536 150.209 242.795 151.794C244.971 152.852 245.903 152.852 247.92 151.794C251.105 150.122 302.43 95.2151 303.579 92.2501C305.695 86.7891 299.455 80.7611 293.965 82.9611ZM52.135 112.073C48.491 114.939 48.491 120.061 52.135 122.927C54.626 124.887 56.016 125 77.68 125H100.591L103.045 122.545C104.395 121.195 105.5 118.925 105.5 117.5C105.5 116.075 104.395 113.805 103.045 112.455L100.591 110H77.68C56.016 110 54.626 110.113 52.135 112.073ZM409.955 112.455C408.605 113.805 407.5 116.075 407.5 117.5C407.5 118.925 408.605 121.195 409.955 122.545L412.409 125H435.32C456.984 125 458.374 124.887 460.865 122.927C462.776 121.424 463.5 119.933 463.5 117.5C463.5 115.067 462.776 113.576 460.865 112.073C458.374 110.113 456.984 110 435.32 110H412.409L409.955 112.455ZM94.009 162.094C84.664 167.631 76.684 172.687 76.275 173.331C75.318 174.835 75.312 180.172 76.265 181.6C77.603 183.604 81.652 185.179 83.969 184.597C87.797 183.636 116.845 166.194 119.323 163.368C121.018 161.435 121.48 160.013 121.03 158.109C120.226 154.7 116.948 151.997 113.639 152.014C112.105 152.021 103.886 156.242 94.009 162.094ZM394.273 153.75C391.698 156.683 391.193 159.883 392.896 162.482C394.5 164.929 424.986 183.582 429.049 184.602C431.351 185.179 435.401 183.598 436.735 181.6C438.229 179.363 437.513 173.992 435.49 172.26C434.385 171.313 426.397 166.38 417.74 161.296C401.336 151.664 397.257 150.352 394.273 153.75ZM59.62 219.75C58.223 220.913 48.074 246.15 29.359 295C13.871 335.425 1.00097 369.665 0.759972 371.09C0.460972 372.847 1.07197 374.507 2.65997 376.253C5.49497 379.37 59.953 403 64.303 403C65.916 403 67.985 402.121 68.993 401.008C71.013 398.776 130.5 248.903 130.5 246.046C130.5 242.316 126.9 239.997 114.11 235.49C107.02 232.991 101.032 231.135 100.802 231.364C100.573 231.594 93.639 250.393 85.395 273.141C77.151 295.888 69.858 315.052 69.189 315.728C68.52 316.403 66.547 317.241 64.803 317.589C62.236 318.103 61.144 317.735 59.066 315.657C57.655 314.246 56.503 312.058 56.507 310.795C56.51 309.533 63.019 290.597 70.971 268.715C78.923 246.833 85.557 228.178 85.714 227.259C85.933 225.979 83.668 224.724 76 221.88C64.478 217.606 62.504 217.349 59.62 219.75ZM437 221.904C430.104 224.479 427.091 226.082 427.293 227.069C427.454 227.856 434.091 246.51 442.043 268.522C449.994 290.534 456.5 309.566 456.5 310.817C456.5 312.068 455.345 314.246 453.934 315.657C451.856 317.735 450.764 318.103 448.197 317.589C446.453 317.241 444.49 316.403 443.833 315.728C443.176 315.052 435.876 295.881 427.611 273.124C419.345 250.368 412.408 231.575 412.195 231.362C411.983 231.149 406.002 233.019 398.904 235.518C386.102 240.024 382.5 242.338 382.5 246.056C382.5 248.924 441.975 398.762 444.003 401.003C445.037 402.145 447.082 403 448.781 403C453.202 403 507.475 379.428 510.34 376.264C511.927 374.511 512.538 372.846 512.24 371.09C511.998 369.665 499.126 335.425 483.637 295C464.969 246.28 454.767 220.91 453.376 219.75C450.493 217.345 448.51 217.606 437 221.904ZM114.222 330.254C101.144 363.389 90.473 390.95 90.508 391.5C90.542 392.05 98.063 396.665 107.22 401.756L123.869 411.012L133.5 401.55C145.725 389.539 149.658 387.606 162 387.545C169.659 387.507 171.82 387.886 176.5 390.09C183.465 393.37 188.081 397.269 191.637 402.877C193.443 405.725 195.847 407.924 198.409 409.071C203.417 411.313 210.567 417.852 213.049 422.462C214.282 424.75 216.107 426.375 218.232 427.077C222.137 428.365 231.99 437.114 234.073 441.141C234.93 442.799 237.64 445.051 240.557 446.529C247.008 449.798 252.728 455.558 256.137 462.216C258.221 466.287 258.944 469.366 259.29 475.633C259.824 485.315 258.013 491.865 252.977 498.463C249.876 502.525 249.764 502.929 251.342 504.357C257.591 510.012 270.855 511.723 278.951 507.918C284.691 505.22 292.017 497.344 293.551 492.223L294.759 488.193L301.423 488.234C309.505 488.285 315.548 485.885 320.955 480.478C324.689 476.744 328.436 469.988 328.478 466.911C328.496 465.602 329.777 465.333 335.75 465.38C341.338 465.424 344.074 464.915 347.686 463.16C353.711 460.233 358.903 454.45 361.126 448.189L362.885 443.238L370.087 442.776C381.876 442.02 390.861 435.186 394.029 424.568C396.263 417.078 396.172 416.937 390.489 419.096C384.59 421.338 377.717 421.548 373.218 419.624C371.448 418.867 358.975 410.293 345.5 400.571C323.571 384.748 320.685 382.956 318 383.496C292.903 388.54 272.14 383.556 256.89 368.828L252.781 364.859L242.307 371.334C229.926 378.986 224.448 381.072 214.973 381.739C178.819 384.287 156.449 347.878 177.182 320.228C178.531 318.429 190.262 309.04 203.252 299.365L226.869 281.773L222.934 279.38C214.318 274.14 208.65 272.624 197.5 272.58C187.896 272.542 185.843 272.899 173.437 276.769C165.978 279.096 159.43 281 158.886 281C158.342 281 153.709 278.525 148.59 275.5C143.471 272.475 138.994 270.002 138.641 270.004C138.288 270.006 127.3 297.118 114.222 330.254ZM361 278.548C353.85 282.045 346.965 284.928 345.7 284.954C344.435 284.979 330.035 282.472 313.7 279.382C281.495 273.289 274.001 272.713 264.758 275.619C257.82 277.801 254.904 279.769 218.5 306.843C186.334 330.764 184.504 332.712 184.53 343C184.563 356.06 194.378 365.363 209.58 366.741C217.977 367.502 223.294 365.387 241.308 354.12L256.954 344.333L261.633 350.917C268.145 360.081 275.504 365.489 285.432 368.405C292.993 370.625 306.377 370.461 315.88 368.031L323.579 366.062L351.241 386.031C368.001 398.13 379.807 406 381.195 406C384.776 406 420.511 387.799 420.437 386.013C420.328 383.372 376.045 272.67 375 272.424C374.45 272.294 368.15 275.05 361 278.548ZM155.636 403.148C151.423 404.361 133.109 421.896 130.289 427.418C127.241 433.386 128.074 442.67 132.103 447.648C136.394 452.95 139.372 454.912 144.443 455.777C148.445 456.461 148.97 456.878 149.776 460.018C150.813 464.059 154.585 469.354 158.038 471.617C159.361 472.484 162.571 473.736 165.172 474.399C169.352 475.465 170.003 476.005 170.785 479.053C172.632 486.252 180.586 493 187.225 493C189.666 493 190.251 493.617 191.732 497.75C193.82 503.579 197.491 507.638 202.897 510.093C207.599 512.228 211.351 512.447 216.893 510.908C221.538 509.618 239.598 492.678 242.605 486.79C244.841 482.412 245.099 474.366 243.153 469.718C241.176 464.997 234.332 459.232 229.81 458.479C223.965 457.505 223.795 457.387 223.123 453.804C222.387 449.88 217.481 443.559 213.625 441.565C212.143 440.798 209.279 439.861 207.259 439.483C204.147 438.899 203.409 438.237 202.42 435.147C199.93 427.369 192.402 421 185.698 421C183.201 421 182.656 420.465 181.613 416.983C178.337 406.048 166.84 399.925 155.636 403.148Z" fill="#A13E0D"/>
</g>
<defs>
<clipPath id="clip0_201_94">
<rect width="512" height="512" fill="white" transform="translate(0.5)"/>
</clipPath>
</defs>
</svg>
