<svg width="513" height="512" viewBox="0 0 513 512" fill="none" xmlns="http://www.w3.org/2000/svg">
<path fill-rule="evenodd" clip-rule="evenodd" d="M135.813 17.074C131.177 19.369 127.443 23.72 125.666 28.899C124.06 33.58 124.018 164.725 125.621 170.497C127.069 175.714 133.786 182.431 139.003 183.879C141.201 184.49 147.387 184.991 152.75 184.994L162.5 185V200.429C162.5 216.842 163.092 219 167.591 219C169.33 219 198.582 190.284 200.8 186.401C201.468 185.231 209.457 184.999 249.3 184.994C279.842 184.991 298.374 184.607 300.821 183.928C302.922 183.344 306.383 181.293 308.512 179.37C315.847 172.744 315.593 175.809 315.28 97.836L315 28.171L312 23.912C310.35 21.57 307.017 18.606 304.593 17.327L300.185 15L220.093 15.001C141.077 15.002 139.944 15.029 135.813 17.074ZM217 37.192C215.9 37.814 200.673 48.225 183.162 60.328C162.22 74.802 151.011 83.155 150.41 84.736C149.268 87.739 150.126 91.352 152.489 93.49C155.23 95.97 159.934 95.64 164.451 92.651C166.654 91.193 168.657 90 168.902 90C169.146 90 169.493 101.151 169.673 114.781C169.994 139.085 170.049 139.657 172.555 144.522C174.367 148.041 176.523 150.356 179.974 152.491L184.839 155.5L218.419 155.81C255.019 156.149 257.271 155.896 263.068 150.806C269.813 144.884 269.946 144.256 270.5 115.793L271 90.086L275.4 93.043C282.513 97.823 288.768 96.263 290.097 89.377C290.585 86.848 290.158 85.672 287.85 83.19C284.603 79.699 226.294 38.252 222.715 36.892C219.794 35.781 219.464 35.799 217 37.192ZM202.75 66.192L185.5 78.179V106.867C185.5 131.213 185.736 135.891 187.057 137.777C188.609 139.994 188.7 140 219.985 140C247.172 140 251.567 139.79 252.929 138.429C254.286 137.072 254.5 132.863 254.5 107.594V78.33L238.25 66.819C229.313 60.487 221.55 55.059 221 54.756C220.45 54.453 212.238 59.599 202.75 66.192ZM84.4999 197.077C74.8739 201.425 68.5689 210.269 67.7409 220.583C66.8439 231.758 72.2099 241.816 82.1899 247.664C88.9959 251.653 99.3769 252.119 106.705 248.764C118.997 243.136 125.486 231.125 123.391 217.877C121.87 208.253 113.521 198.489 104.725 196.046C98.6159 194.349 89.5109 194.813 84.4999 197.077ZM408 196.095C403.158 197.57 395.831 203.579 393.016 208.382C384.435 223.024 390.516 241.54 406.275 248.755C413.624 252.119 423.995 251.658 430.81 247.664C440.79 241.816 446.156 231.758 445.259 220.583C444.431 210.269 438.126 201.425 428.5 197.077C423.653 194.887 413.55 194.403 408 196.095ZM85.9589 254.88C81.4889 256.91 76.9169 261.781 74.8479 266.718C73.7839 269.259 73.5029 279.46 73.5149 315.218C73.5309 364.949 73.7719 367.498 79.6069 379.725C82.6159 386.029 93.1649 397.972 99.9999 402.812L103 404.937L87.9319 404.968C69.3759 405.007 64.3429 403.782 59.0669 397.942C57.0559 395.716 54.981 392.765 54.455 391.383C53.892 389.9 53.4999 367.028 53.4999 335.584C53.4999 300.474 53.1369 281.256 52.4349 279.244C50.0949 272.53 41.4739 272.975 39.4209 279.915C38.7129 282.309 38.4699 301.277 38.6899 337C39.0169 390.205 39.031 390.532 41.33 396.247C44.5549 404.266 51.8839 411.982 59.7089 415.595L65.9999 418.5L90.2499 418.828L114.5 419.156V458.078V497H124H133.5V458.161V419.321L136.02 418.173C137.406 417.541 138.97 415.894 139.495 414.512C140.39 412.16 140.896 412 147.44 412C153.825 412 154.735 412.267 157.946 415.087C161.988 418.635 162.29 419.498 176.082 466.75L184.911 497H187.705H190.5V451.909V406.818L185.779 397.678C180.196 386.868 170.823 376.697 162.631 372.558C155.728 369.071 146.038 367.039 136.2 367.017C127.634 366.998 123.962 365.674 120.588 361.385C118.671 358.948 118.5 357.438 118.5 342.974V327.217L106.81 319.358C96.7989 312.629 94.6999 310.74 92.1919 306.212C88.3369 299.249 87.5199 290.466 90.0269 282.919C92.6199 275.111 100.307 267.687 108.119 265.444C111.353 264.515 114.192 263.581 114.427 263.367C115.251 262.619 108.963 256.798 105.29 254.908C100.455 252.422 91.3989 252.408 85.9589 254.88ZM408 254.657C404.876 256.298 398.5 261.92 398.5 263.032C398.5 263.384 401.243 264.435 404.596 265.367C412.626 267.599 420.328 274.956 422.973 282.919C425.48 290.466 424.663 299.249 420.808 306.212C418.3 310.74 416.201 312.629 406.19 319.358L394.5 327.217V342.974C394.5 357.438 394.329 358.948 392.412 361.385C389.038 365.674 385.366 366.998 376.8 367.017C366.962 367.039 357.272 369.071 350.369 372.558C342.177 376.697 332.804 386.868 327.221 397.678L322.5 406.818V451.909V497H325.301H328.101L336.913 466.75C350.568 419.871 350.997 418.648 355.054 415.087C358.245 412.285 359.197 412 365.374 412C371.673 412 372.264 412.187 373.325 414.515C373.955 415.898 375.602 417.545 376.985 418.175L379.5 419.321V458.161V497H389H398.5V458.078V419.156L422.775 418.828L447.05 418.5L453.71 415.219C461.818 411.225 468.475 404.183 471.687 396.202C473.964 390.544 473.984 390.09 474.31 337C474.532 300.864 474.291 282.322 473.565 279.87C471.614 273.274 463.413 272.506 460.61 278.657C459.84 280.347 459.5 297.618 459.5 334.982C459.5 366.809 459.109 389.899 458.545 391.383C458.019 392.765 455.944 395.716 453.933 397.942C448.657 403.782 443.624 405.007 425.068 404.968L410 404.937L413 402.812C419.714 398.057 430.06 386.348 433.216 379.932C439.227 367.71 439.469 365.21 439.485 315.218C439.497 279.46 439.216 269.259 438.152 266.718C436.083 261.781 431.511 256.91 427.041 254.88C421.982 252.582 412.167 252.467 408 254.657ZM110 279.861C104.848 283.043 103.189 285.661 102.775 291.265C102.189 299.205 103.913 301.094 123.111 313.546L140 324.5L180 324.766C216.568 325.009 220.3 324.881 223.5 323.266C228.304 320.842 231.9 313.647 230.919 308.42C229.962 303.32 225.01 298.127 220 296.971C217.8 296.463 200.912 296.037 182.471 296.024L148.942 296L139.471 289.871C120.032 277.292 116.243 276.005 110 279.861ZM389 280.342C386.8 281.617 380.304 285.662 374.565 289.33L364.13 296L330.565 296.024C312.104 296.037 295.2 296.463 293 296.971C288.021 298.12 283.039 303.311 282.098 308.331C281.157 313.346 284.269 320.273 288.682 322.988C291.899 324.967 293.235 325.021 332.5 324.765L373 324.5L389.866 313.584C409.082 301.146 410.814 299.245 410.223 291.242C409.413 280.289 398.64 274.756 389 280.342ZM160.5 344V354H256.5H352.5V344V334H256.5H160.5V344ZM204.5 432.5V497H256.5H308.5V432.5V368H256.5H204.5V432.5Z" fill="#A13E0D"/>
</svg>
