<svg width="513" height="512" viewBox="0 0 513 512" fill="none" xmlns="http://www.w3.org/2000/svg">
<path fill-rule="evenodd" clip-rule="evenodd" d="M250.955 15.455C248.589 17.82 248.5 18.403 248.5 31.5C248.5 44.597 248.589 45.18 250.955 47.545C254.202 50.793 258.798 50.793 262.045 47.545C264.411 45.18 264.5 44.597 264.5 31.5C264.5 18.403 264.411 17.82 262.045 15.455C258.798 12.207 254.202 12.207 250.955 15.455ZM320.155 15.057L317.539 17.114L317.27 38.307L317 59.5L302.4 60C286.953 60.529 287.178 60.462 280.709 66.433C273.553 73.04 273.11 85.432 279.743 93.478C284.878 99.709 288.944 100.953 304.25 100.978L317.5 101V121.889C317.5 140.959 317.666 142.984 319.41 145.139C321.292 147.465 321.629 147.505 342.295 147.805L363.27 148.11L363.685 134.305C364.151 118.775 364.853 116.624 371.376 110.731C380.632 102.369 396.248 105.141 402.546 116.264C404.684 120.039 404.987 121.996 405.336 134.25L405.727 148H425.979C444.952 148 446.397 147.869 448.865 145.927L451.5 143.855V80.5V17.145L448.865 15.073C446.264 13.027 445.437 13 384.5 13C323.713 13 322.73 13.031 320.155 15.057ZM155.411 40.871C151.59 43.965 152.372 48.193 158.858 59.5C164.861 69.966 167.493 73 170.564 73C175.959 73 180.457 67.59 178.966 62.893C177.965 59.738 168.657 43.968 166.192 41.25C163.655 38.453 158.616 38.276 155.411 40.871ZM243 73.073C181.961 79.184 132.812 123.276 119.35 184C115.984 199.184 115.984 225.816 119.35 241C125.506 268.769 135.208 286.516 159.515 314.469C165.19 320.995 172.078 329.297 174.821 332.917C179.425 338.993 185.546 350.244 186.747 354.838C187.226 356.668 187.538 356.697 192.594 355.386C196.602 354.346 205.871 354 229.718 354C247.198 354 261.498 353.663 261.496 353.25C261.494 352.837 260.207 349.058 258.635 344.852L255.778 337.203L274.964 318.036L294.151 298.868L305.075 302.869C311.084 305.07 316.59 307.012 317.311 307.185C318.13 307.382 320.609 303.186 323.919 296L329.216 284.5L353.278 284.232L377.339 283.965L381.82 274.732C390.402 257.049 394.943 240.346 396.141 222.058L396.801 212H370.266H343.732L343.344 198.727C342.985 186.437 342.754 185.108 340.224 180.792C337.068 175.406 333.694 172.733 327.85 170.984C321.903 169.206 315.38 170.447 310.294 174.326C303.009 179.883 302.049 182.54 301.654 198.25L301.308 212H278.904H256.5V193V174H245.182C231.559 174 225.236 172.388 220.773 167.777C211.927 158.637 212.511 145.082 222.092 137.185C226.966 133.167 232.223 132 245.443 132H256.5V102V72L253.75 72.136C252.238 72.211 247.4 72.633 243 73.073ZM85.802 110.501C82.839 112.577 81.908 117.447 83.895 120.48C86.156 123.931 105.294 134.959 109.061 134.982C113.465 135.008 116.5 131.799 116.5 127.116C116.5 122.531 115.962 122.023 103.306 114.648C93.218 108.771 89.522 107.895 85.802 110.501ZM62 205.112C57.113 207.889 55.858 214.358 59.5 218C61.308 219.808 62.833 220 75.389 220C87.47 220 89.579 219.756 91.589 218.129C94.712 215.6 94.756 209.812 91.675 206.728C89.64 204.69 88.363 204.478 76.725 204.238C68.591 204.071 63.278 204.386 62 205.112ZM96.5 295.497C84.984 302.088 82.073 305.069 82.911 309.413C83.64 313.197 86.824 316 90.392 316C93.387 316 112.041 305.874 114.75 302.779C117.13 300.058 117.001 294.501 114.5 292C111.195 288.695 106.94 289.522 96.5 295.497ZM338.127 303.226C331.083 319.471 330.708 320.018 324.854 322.607L319.295 325.066L309.746 321.533C304.494 319.59 299.47 318 298.582 318C297.694 318 291.855 323.127 285.607 329.393L274.247 340.785L278.058 351.651L281.868 362.516L279.328 368.064C276.824 373.534 276.65 373.675 267.144 377.987L257.5 382.36V399.552V416.743L267.164 421.122C276.627 425.409 276.876 425.609 279.164 430.779C280.449 433.682 281.5 436.562 281.5 437.179C281.5 437.796 279.845 442.763 277.822 448.217L274.143 458.133L286.072 470.04L298 481.946L308.494 478.062C318.323 474.424 319.199 474.265 322.302 475.562C330.057 478.802 330.574 479.35 334.982 489L339.321 498.5H356.5H373.679L378.018 489C382.426 479.35 382.943 478.802 390.698 475.562C393.801 474.265 394.677 474.424 404.506 478.062L415 481.946L426.928 470.04L438.857 458.133L435.178 448.217C433.155 442.763 431.5 437.796 431.5 437.179C431.5 436.562 432.551 433.682 433.836 430.779C436.124 425.609 436.373 425.409 445.836 421.122L455.5 416.743V399.552V382.36L445.856 377.987C436.359 373.68 436.174 373.529 433.683 368.089L431.155 362.566L434.975 351.686L438.796 340.806L426.898 328.974L415 317.142L404.403 321.133L393.806 325.123L388.015 322.312C382.315 319.544 382.158 319.352 377.901 310L373.577 300.5L356.562 300.226L339.546 299.953L338.127 303.226ZM341.473 356.277C319.278 363.844 306.154 387.895 311.992 410.307C318.049 433.561 339.724 448.225 363.14 444.909C389.48 441.179 407.652 414.201 401.008 388.693C396.82 372.612 385.649 360.638 370.409 355.895C361.853 353.232 349.944 353.389 341.473 356.277ZM194.248 371.427C188.607 373.44 183.949 377.44 181.602 382.289C179.91 385.785 179.5 388.518 179.5 396.316V406H176.455C172.39 406 168.5 409.912 168.5 414C168.5 418.088 172.39 422 176.455 422H179.5V431.532C179.5 442.378 180.62 445.927 185.602 450.872C192.566 457.783 193.563 457.954 227.096 457.978L257.193 458L260.932 447.919C262.989 442.375 264.52 437.692 264.336 437.513C264.151 437.333 259.05 434.912 253 432.131L242 427.076L241.734 399.698L241.469 372.319L243.734 371.227C247.349 369.485 199.145 369.679 194.248 371.427ZM343.98 372.357C337 375.608 329.936 383.692 327.872 390.792C322.218 410.242 336.384 429.294 356.5 429.294C382.392 429.294 395.912 399.021 378.612 379.78C372.291 372.749 366.107 370.02 356.5 370.02C350.737 370.02 347.837 370.561 343.98 372.357ZM206.51 475.75C206.525 478.421 210.843 487.09 214.054 490.893C215.629 492.759 219.187 495.342 221.959 496.633C226.884 498.927 227.669 498.981 256.185 498.99C274.11 498.996 286.432 498.596 288.122 497.954L290.875 496.907L279.454 485.454L268.033 474H237.266C208.628 474 206.501 474.121 206.51 475.75Z" fill="#A13E0D"/>
</svg>
