<svg width="512" height="512" viewBox="0 0 512 512" fill="none" xmlns="http://www.w3.org/2000/svg">
<path fill-rule="evenodd" clip-rule="evenodd" d="M119.352 102.436L51.2051 153.6L61.4601 167.28L71.7151 180.96L129.781 137.416L187.846 93.871L245.841 137.381L303.837 180.891L314.045 167.295L324.252 153.699L321.876 151.868C320.569 150.861 307.267 140.917 292.315 129.769L265.131 109.5L264.815 80.5L264.5 51.5H247.5H230.5L230.225 67.209L229.95 82.918L209.725 67.794C198.601 59.475 189.05 52.355 188.5 51.971C187.95 51.587 156.834 74.296 119.352 102.436ZM299 68V85H341.5H384V119.47V153.94L371.471 154.22L358.942 154.5L379.718 187.751C391.146 206.039 400.821 220.889 401.22 220.751C401.909 220.512 443 155.267 443 154.41C443 154.185 437.375 154 430.5 154H418V102.5V51H358.5H299V68ZM140.75 161.148L94.0001 196.243V243.121V290H132.5H171V264.5V239H188H205V264.5V290H243.5H282V243.242V196.483L235.362 161.492C209.712 142.246 188.449 126.4 188.112 126.277C187.776 126.154 166.463 141.846 140.75 161.148ZM171 188V205H188H205V188V171H188H171V188ZM359 256.513C359 256.795 365.013 266.631 372.362 278.371L385.723 299.715L383.784 302.108C372.571 315.942 358.569 342.263 352.102 361.663C344.328 384.982 339.403 419.854 342.05 432.845C344.39 444.334 351.113 452.816 361.88 457.865L367.5 460.5H401.021H434.542L441.163 457.24C452.107 451.853 459.171 441.903 460.583 429.89C461.479 422.266 459.366 399.421 456.475 385.482C450.684 357.551 438.39 329.659 421.825 306.86C419.171 303.208 417 299.892 417 299.49C417 299.088 422.85 289.418 430 278C437.15 266.582 443 256.961 443 256.62C443 256.279 424.1 256 401 256C377.9 256 359 256.231 359 256.513ZM166.655 357.945C155.295 376.13 146 391.456 146 392.004C146 392.612 150.868 393 158.5 393H171V427V461H239H307V444V427H256H205V410V393H217.5C224.375 393 230 392.736 230 392.414C230 391.599 190.064 327.804 188.543 326.191C187.549 325.135 183.305 331.291 166.655 357.945Z" fill="#666666"/>
</svg>
