<svg width="512" height="512" viewBox="0 0 512 512" fill="none" xmlns="http://www.w3.org/2000/svg">
<g clip-path="url(#clip0_201_157)">
<path fill-rule="evenodd" clip-rule="evenodd" d="M35.9186 1.83307C18.6376 6.34407 4.30662 21.5621 1.02062 38.8911C-0.388383 46.3201 -0.388383 401.68 1.02062 409.109C4.30662 426.438 18.6376 441.656 35.9186 446.167C41.8116 447.705 49.5046 447.891 109.484 447.942L176.468 448L134.846 406.25C111.953 383.288 92.0646 362.623 90.6486 360.329C81.3706 345.297 81.3866 324.524 90.6856 309.671C92.1216 307.377 97.1086 301.591 101.767 296.814L110.236 288.129L92.1876 287.814C72.4616 287.471 71.4726 287.193 66.5616 280.615C63.6706 276.743 63.6706 267.257 66.5616 263.385C71.5326 256.726 72.2736 256.531 93.8196 256.178C106.02 255.978 114.89 256.268 117.157 256.94C121.667 258.278 126.685 263.806 127.544 268.382L128.186 271.808L134.422 268.89C138.407 267.025 143.74 265.574 149.205 264.869L157.753 263.765L177.867 243.633L197.982 223.5H136.064C75.0876 223.5 74.1046 223.469 71.3846 221.438C66.1376 217.52 64.4996 214.324 64.4996 208C64.4996 201.676 66.1376 198.48 71.3846 194.562C74.1046 192.531 75.0876 192.5 136 192.5C196.912 192.5 197.895 192.531 200.615 194.562C205.88 198.493 207.5 201.67 207.5 208.067V213.987L235.577 185.923L263.655 157.858L264.809 149.235C265.62 143.17 267.024 138.37 269.539 133.056C272.74 126.294 274.922 123.71 290.308 108.467C309.299 89.6521 313.216 87.0511 326.694 84.3021C333.948 82.8231 341.923 83.2611 349.75 85.5701L352 86.2331V65.2531C352 53.7141 351.541 41.8511 350.979 38.8911C347.502 20.5561 331.444 4.49807 313.109 1.02107C309.608 0.35707 261.379 0.0200701 175.114 0.0580701C53.0906 0.11107 41.9736 0.25207 35.9186 1.83307ZM73.4496 65.3991C66.8326 68.2981 63.0196 75.9641 64.4376 83.5211C65.3146 88.1961 70.3076 93.7211 74.8426 95.0351C77.3406 95.7591 110.091 96.0011 178.177 95.7971C277.058 95.5021 277.876 95.4841 280.615 93.4381C285.863 89.5201 287.5 86.3241 287.5 80.0001C287.5 73.6761 285.863 70.4801 280.615 66.5621C277.874 64.5151 277.13 64.4981 177.177 64.2821C95.0056 64.1031 75.9386 64.3091 73.4496 65.3991ZM331.365 115.992C326.778 117.028 323.83 119.444 310.337 133.223C301.012 142.744 297.929 146.56 297.126 149.572C295.954 153.965 296.815 159.261 299.323 163.09L300.943 165.562L233.209 233.291C165.717 300.778 165.466 301.015 163.135 299.382C159.533 296.859 154.01 295.942 149.564 297.128C146.524 297.938 142.696 301.056 132.754 310.818C125.673 317.77 118.955 324.955 117.824 326.784C115.335 330.813 115.092 338.373 117.317 342.577C119.604 346.898 235.021 461.717 238.315 462.948C242.323 464.446 247.672 464.249 251.43 462.466C255.625 460.476 280.552 435.309 281.937 431.666C283.579 427.346 283.204 422.321 280.903 417.81L278.806 413.699L301.218 391.288L323.629 368.876L372.391 426.5C423.534 486.935 424.634 488.07 436.5 492.594C443.261 495.171 457.443 495.205 464.763 492.66C476.962 488.42 487.392 478.326 492.115 466.192C495.061 458.625 495.316 444.922 492.658 437.031C488.684 425.23 487.017 423.602 426.254 372.183L368.876 323.629L391.288 301.218L413.699 278.806L417.81 280.903C422.321 283.204 427.346 283.579 431.666 281.937C435.309 280.552 460.476 255.625 462.466 251.43C464.249 247.672 464.446 242.323 462.948 238.315C461.78 235.19 346.971 119.623 343 117.575C339.494 115.767 335.042 115.161 331.365 115.992ZM73.4496 129.398C66.8316 132.3 63.0196 139.965 64.4376 147.521C65.3146 152.195 70.3066 157.72 74.8426 159.036C77.3286 159.758 105.283 160.002 162.177 159.799C244.896 159.503 245.886 159.476 248.615 157.438C253.863 153.52 255.5 150.324 255.5 144C255.5 137.676 253.863 134.48 248.615 130.562C245.883 128.522 244.968 128.498 161.177 128.28C92.3076 128.102 75.9306 128.31 73.4496 129.398Z" fill="#666666"/>
</g>
<defs>
<clipPath id="clip0_201_157">
<rect width="512" height="512" fill="white"/>
</clipPath>
</defs>
</svg>
