<svg width="512" height="512" viewBox="0 0 512 512" fill="none" xmlns="http://www.w3.org/2000/svg">
<g clip-path="url(#clip0_201_143)">
<path fill-rule="evenodd" clip-rule="evenodd" d="M93.4996 84.4969C42.3496 130.96 0.351559 169.669 0.170559 170.517C-0.147441 172.009 16.3286 192 17.8776 192C18.2996 192 24.4626 186.707 31.5726 180.237C44.0406 168.892 171.112 53.6039 179.728 45.8199C185.523 40.5839 189.482 40.5859 195.272 45.8259C233.187 80.1429 333.419 171.156 336.132 173.73L339.765 177.176L345.632 173.195C348.86 171.005 354.812 167.534 358.86 165.483L366.219 161.752L362.86 158.51C361.012 156.726 327.325 126.092 288 90.4339C248.675 54.7759 210.28 19.9529 202.678 13.0499C195.077 6.14789 188.327 0.390894 187.678 0.258894C187.03 0.125894 144.65 38.0329 93.4996 84.4969ZM283.607 38.5819C283.273 39.4519 283.011 44.9639 283.025 50.8319L283.049 61.4999L298.775 75.6709C307.424 83.4649 317.762 92.8389 321.75 96.5019L329 103.162V70.0809V36.9999H306.607C287.11 36.9999 284.135 37.2049 283.607 38.5819ZM116.303 127.773L46.1066 191.5L46.0566 273.5C46.0086 353.064 46.0646 355.595 47.9556 358.696C52.1516 365.577 51.4796 365.468 91.6706 365.796L127.934 366.093L128.217 311.796L128.5 257.5L131.5 252.079C134.868 245.994 141.318 240.727 147.5 239.014C150.197 238.267 163.882 238.003 189.5 238.203C224.73 238.478 227.784 238.641 231.403 240.437C236.702 243.066 241.819 248.38 244.377 253.911C246.446 258.382 246.507 259.88 246.783 312.291L247.066 366.083L254.753 365.791L262.439 365.5L279.789 345.5C289.331 334.5 298.425 323.902 299.996 321.948L302.854 318.397L299.964 310.23C295.102 296.492 293.567 287.056 293.58 271C293.593 255.3 295.212 245.153 299.725 232.5C304.709 218.526 314.816 201.244 323.182 192.39L326.12 189.281L257.443 126.89C219.67 92.5759 188.256 64.3979 187.633 64.2729C187.01 64.1479 154.911 92.7229 116.303 127.773ZM387.35 173.985C348.854 184.076 320.066 215.106 312.968 254.16C311.394 262.823 311.599 280.911 313.375 290C314.661 296.586 318.009 306.86 322.032 316.574C322.732 318.264 323.028 320.753 322.689 322.103C322.35 323.454 302.812 346.821 279.272 374.03C207.395 457.106 204.365 460.698 201.945 465.677C200.049 469.579 199.602 472.123 199.602 479C199.602 489.23 201.956 495.02 208.968 502.032C220.256 513.32 238.271 515.106 250.619 506.161C252.814 504.571 281.126 472.592 313.534 435.097C352.636 389.857 373.274 366.718 374.884 366.314C376.224 365.978 381.385 366.779 386.405 368.103C394.354 370.198 397.643 370.493 412.5 370.444C432.619 370.377 439.577 368.861 455.5 361.074C488.273 345.047 509.267 313.751 511.683 277.319L512.293 268.139L509.223 265.069C505.917 261.763 500.897 260.967 497.948 263.282C497.095 263.952 487.44 274.85 476.493 287.5C465.546 300.15 455.895 311.048 455.045 311.718C453.281 313.109 421.547 313.443 396.027 312.338C382.311 311.744 380.475 311.452 378.21 309.504C375.855 307.478 375.296 304.993 369.931 272.684C366.767 253.627 364.432 237.065 364.742 235.878C365.053 234.691 374.514 223.095 385.768 210.11C397.021 197.124 407.076 185.15 408.111 183.5C414.377 173.511 405.201 169.305 387.35 173.985ZM150.36 257.46C146.076 260.461 145.961 262.064 146.237 315L146.5 365.5H187.5H228.5L228.795 316C228.994 282.581 228.738 265.284 228.006 262.756C226.079 256.093 225.51 256 186.772 256C158.294 256 152.09 256.249 150.36 257.46ZM248.295 447.647C247.032 448.16 231.633 465.704 228.699 469.973C224.447 476.16 228.385 484 235.746 484C239.995 484 241.531 482.655 254.331 467.718C260.156 460.921 261 459.428 261 455.923C261 450.697 257.538 446.965 252.795 447.079C250.983 447.122 248.958 447.378 248.295 447.647Z" fill="#666666"/>
</g>
<defs>
<clipPath id="clip0_201_143">
<rect width="512" height="512" fill="white"/>
</clipPath>
</defs>
</svg>
