<svg width="512" height="512" viewBox="0 0 512 512" fill="none" xmlns="http://www.w3.org/2000/svg">
<g clip-path="url(#clip0_201_151)">
<path fill-rule="evenodd" clip-rule="evenodd" d="M220.5 1.41888C196.372 5.43088 176.408 14.4399 157.661 29.7769L150.803 35.3879L158.907 37.5329C163.364 38.7119 167.263 39.9299 167.572 40.2379C167.88 40.5469 166.297 42.2739 164.055 44.0759C158.698 48.3809 148.949 60.2329 143.819 68.6779C140.079 74.8329 139.874 75.5129 141.471 76.4609C153.118 83.3779 160 94.1089 160 105.353C160 110.143 157.483 119.583 155.955 120.528C154.845 121.214 146.953 115.696 142.804 111.334C136.079 104.265 133.817 91.6689 137.392 81.1849C138.388 78.2619 138.958 75.6249 138.658 75.3249C138.358 75.0239 135.162 74.5419 131.556 74.2519C127.95 73.9629 125 73.3199 125 72.8229C125 69.4829 135.698 52.7259 143.954 43.1329C147.392 39.1389 149.925 35.5909 149.583 35.2489C149.241 34.9079 141.432 34.4369 132.231 34.2049C113.627 33.7349 103.434 35.0029 88.8639 39.5989C30.2179 58.1029 -7.71812 118.603 1.45488 179C9.77688 233.801 51.6369 277.079 105.385 286.452C116.838 288.449 138.162 288.449 149.615 286.452C202.96 277.149 245.447 233.561 253.377 180L254.635 171.5L257.568 171.661C259.18 171.75 264.212 172.154 268.75 172.559L277 173.295L277.032 305.898C277.067 451.173 276.622 441.171 283.131 443.038C287.761 444.366 501.294 444.324 506.081 442.994C508.105 442.432 510.16 441.021 510.808 439.75C511.648 438.098 512.025 399.083 512.226 293C512.377 213.525 512.36 149.714 512.189 151.197L511.877 153.894L509.189 150.952C506.689 148.216 434.213 95.0759 432.911 95.0239C432.586 95.0109 431.858 96.0119 431.293 97.2499C428.825 102.65 420.751 110.014 413.218 113.734C405.787 117.405 405.312 117.5 394.492 117.5C383.671 117.5 383.199 117.405 375.774 113.734C368.25 110.014 360.173 102.644 357.707 97.2499C357.142 96.0129 356.414 95.0069 356.089 95.0149C355.236 95.0369 281.928 148.511 279.25 151.064C278.012 152.244 277 154.288 277 155.605C277 157.683 276.529 158 273.443 158C267.65 158 255.843 155.763 255.432 154.588C255.223 153.99 254.389 149 253.578 143.5C246.903 98.2039 217.452 60.1099 176.191 43.4019C172.249 41.8059 169.019 40.2669 169.012 39.9819C168.99 39.0589 184.319 29.2399 190.726 26.0729C199.446 21.7629 210.896 18.1879 221.477 16.4709C232.388 14.7019 270.178 14.4779 283.5 16.1039C308.471 19.1519 336.557 30.5159 354.841 44.9689C357.646 47.1859 360.292 48.9799 360.721 48.9549C361.149 48.9299 363.889 46.7329 366.808 44.0729L372.116 39.2369L364.045 33.1549C344.092 18.1199 321.438 7.99688 296.37 2.91488C286.984 1.01188 281.61 0.667879 257 0.399879C236.649 0.177879 226.212 0.469879 220.5 1.41888ZM382.22 51.5779C376.62 54.3679 373.138 57.9369 369.725 64.3839C368.046 67.5559 367.546 70.2209 367.546 75.9999C367.546 84.0139 369.214 88.5349 374.476 94.7889C381.373 102.986 396.383 105.603 406.78 100.422C412.38 97.6319 415.862 94.0629 419.275 87.6159C422.35 81.8059 422.35 70.1939 419.275 64.3839C413.657 53.7719 405.973 48.9999 394.5 48.9999C388.866 48.9999 386.32 49.5339 382.22 51.5779ZM115.063 76.1919C108.479 78.7199 101.404 85.4929 98.0259 92.4999C96.0809 96.5359 95.6059 99.1389 95.5639 106C95.5199 113.326 95.8959 115.282 98.2869 120.161C101.596 126.913 107.296 132.33 114.619 135.683C121.904 139.018 132.479 139.14 139.838 135.974C142.677 134.753 144.969 133.472 144.93 133.127C144.892 132.782 142.102 130.475 138.731 128C131.477 122.674 125.217 113.981 122.529 105.5C120.213 98.1939 120.098 85.5849 122.285 78.7499C124.101 73.0719 123.627 72.9039 115.063 76.1919ZM0.377877 161C0.377877 167.325 0.540877 169.912 0.738877 166.75C0.936877 163.588 0.936877 158.412 0.738877 155.25C0.540877 152.088 0.377877 154.675 0.377877 161ZM389.973 199.701C382.585 204.784 318.13 257.22 317.612 258.567C316.441 261.62 317.015 264.106 319.455 266.545C322.7 269.791 325.814 269.642 330.841 266C333.119 264.35 335.212 263 335.491 263C335.771 263 336 277.997 336 296.326V329.651L338.314 331.826L340.629 334H394.64H448.651L450.826 331.686C452.968 329.405 453 328.882 453 296.186C453 277.933 453.229 263 453.509 263C453.788 263 455.881 264.35 458.159 266C463.186 269.642 466.3 269.791 469.545 266.545C472.007 264.084 472.559 261.621 471.354 258.479C470.817 257.082 406.971 205.203 399.027 199.71C395.895 197.544 393.112 197.541 389.973 199.701ZM372.916 232.313L351.5 249.551L351.237 284.276L350.974 319H361.487H372V308.866C372 303.292 372.55 296.88 373.222 294.616C374.83 289.204 382.204 281.83 387.616 280.222C396.345 277.63 403.528 279.473 410.028 285.972C415.711 291.655 417 295.889 417 308.866V319H427.5H438L437.952 284.25L437.904 249.5L418.414 234C407.695 225.475 397.891 217.729 396.628 216.787C394.353 215.091 394.125 215.24 372.916 232.313ZM389.455 296.455C387.174 298.735 387 299.622 387 308.955V319H394.5H402V308.955C402 299.622 401.826 298.735 399.545 296.455C398.195 295.105 395.925 294 394.5 294C393.075 294 390.805 295.105 389.455 296.455ZM79.9999 381.725V467.451L102.275 489.725C121.242 508.692 124.988 512 127.5 512C130.012 512 133.758 508.692 152.725 489.725L175 467.451V454.586V441.722L166.553 433.122L158.106 424.522L166.553 415.89C177.591 404.61 177.591 404.39 166.553 393.11L158.106 384.478L166.553 375.878C177.609 364.622 177.609 364.378 166.553 353.122L158.106 344.522L166.553 335.89L175 327.258V311.629C175 303.033 174.691 296 174.314 296C173.936 296 170.449 296.885 166.564 297.966C142.102 304.776 111.633 304.783 88.8449 297.985C85.1839 296.893 81.6969 296 81.0949 296C80.3099 296 79.9999 320.295 79.9999 381.725ZM338.635 351.073L336 353.145V371.398C336 389.185 336.059 389.707 338.314 391.826L340.629 394H394.64H448.651L450.826 391.686C452.893 389.485 453 388.479 453 371.258V353.145L450.365 351.073C447.774 349.035 446.837 349 394.5 349C342.163 349 341.226 349.035 338.635 351.073ZM351 371.5V379H394.5H438V371.5V364H394.5H351V371.5Z" fill="#666666"/>
</g>
<defs>
<clipPath id="clip0_201_151">
<rect width="512" height="512" fill="white"/>
</clipPath>
</defs>
</svg>
