<svg width="512" height="512" viewBox="0 0 512 512" fill="none" xmlns="http://www.w3.org/2000/svg">
<path fill-rule="evenodd" clip-rule="evenodd" d="M118.005 33.668C108.166 37.11 100.99 44.369 97.624 54.285C96.224 58.41 96 65.033 96 102.296V145.523L68.929 165.367C52.103 177.703 40.772 186.713 38.986 189.178C27.261 205.364 33.556 228.891 51.878 237.363C56.009 239.273 58.596 239.534 76.25 239.825L96 240.15V338.865C96 424.279 96.206 438.372 97.531 443.458C102.212 461.43 117.4 475.739 135.309 479.049C138.792 479.693 152.714 479.99 170.772 479.805C200.037 479.505 200.577 479.462 205.458 477.042C211.766 473.915 217.173 468.508 220.716 461.784L223.5 456.5L223.82 428.25L224.139 400H256.07H288V426.385C288 447.94 288.296 453.686 289.615 457.77C292.079 465.4 297.494 471.789 305 475.921L311.5 479.5L341.228 479.805C359.051 479.987 373.268 479.689 376.728 479.061C395.271 475.693 411.468 459.622 414.979 441.109C415.63 437.678 416 400.271 416 337.939V240.15L435.75 239.825C455.007 239.508 455.641 239.431 461.161 236.72C480.085 227.427 485.032 201.269 470.643 186.583C468.364 184.258 438.6 161.922 404.5 136.948C370.4 111.975 324.594 78.387 302.709 62.308C261.826 32.272 259.803 31.064 252.663 32.403C250.502 32.809 239.312 40.371 220.913 53.86L192.5 74.69L191.882 64.921C191.335 56.292 190.86 54.415 187.803 48.826C183.796 41.501 177.348 36.062 169.77 33.615C162.652 31.316 124.616 31.355 118.005 33.668ZM249.18 145.625C247.353 146.556 244.653 148.897 243.18 150.827C240.7 154.075 240.475 155.182 240.164 165.668C239.916 174.032 239.493 177 238.548 177C237.845 177 234.078 178.596 230.177 180.548C221.741 184.768 216.042 190.739 211.61 200C208.801 205.872 208.5 207.423 208.5 216.052C208.5 225.067 208.71 226.028 212.235 233.16C216.741 242.278 222.552 247.96 231.796 252.286C238.004 255.191 239.418 255.437 252.817 255.95C266.378 256.469 267.288 256.632 269.09 258.861C271.848 262.27 271.559 267.126 268.422 270.076C265.877 272.469 265.538 272.506 241.991 273C219.893 273.463 217.936 273.652 215.381 275.562C208.194 280.935 206.103 289.379 210.209 296.444C213.856 302.719 217.772 304.404 229.743 304.847L240 305.227V314.212C240 324.603 241.492 328.748 246.647 332.68C253.546 337.942 263.216 336.515 268.618 329.436C271.287 325.939 271.537 324.854 272 314.726L272.5 303.792L277.218 302.005C284.057 299.414 291.218 293.786 295.345 287.759C300.891 279.657 302.329 274.817 302.42 263.948C302.496 254.857 302.32 254.032 298.765 246.84C294.259 237.722 288.448 232.04 279.204 227.714C272.996 224.809 271.582 224.563 258.183 224.05C244.622 223.531 243.712 223.368 241.91 221.139C239.471 218.124 239.471 213.876 241.909 210.861C243.8 208.523 244.055 208.495 268.339 208C295.261 207.451 295.35 207.431 300.438 200.615C303.329 196.743 303.329 187.257 300.438 183.385C296.015 177.461 293.688 176.527 282.43 176.159L272 175.818V166.377C272 160.566 271.464 155.653 270.606 153.6C267.403 145.934 256.519 141.883 249.18 145.625Z" fill="#666666"/>
</svg>
