<svg width="512" height="512" viewBox="0 0 512 512" fill="none" xmlns="http://www.w3.org/2000/svg">
<path fill-rule="evenodd" clip-rule="evenodd" d="M9.246 209.75L9.5 326.5L189.25 326.753L369 327.005V210.003V93H188.996H8.992L9.246 209.75ZM112.247 151.703C98.908 165.332 88.108 176.769 88.247 177.119C88.842 178.615 132.493 223.706 135.325 225.75C140.067 229.171 146.012 228.835 149.923 224.923C152.449 222.397 153 221.039 153 217.339C153 212.935 152.734 212.56 141.335 200.916L129.671 189H171.613C209.494 189 213.794 188.835 216.027 187.296C220.012 184.55 220.934 182.781 220.968 177.827C220.994 173.966 220.489 172.643 218.06 170.214C216.443 168.597 213.687 166.987 211.935 166.637C210.183 166.287 190.718 166 168.678 166H128.606L140.303 154.157C151.051 143.276 152 142.01 152 138.562C152 131.354 147.61 127.038 140.203 126.962C136.67 126.926 135.39 128.059 112.247 151.703ZM392 242V327H446.5H501V284.552V242.104L469.071 241.802C438.466 241.513 437.026 241.413 434.321 239.404C429.049 235.486 429.031 235.333 429.015 194.75L429 157H410.5H392V242ZM451 188V219H476H501V188V157H476H451V188ZM232.206 193.048C229.088 194.299 226.659 200.37 227.495 204.823C228.002 207.526 230.789 211.017 239.74 220.161L251.329 232H208.3C166.673 232 165.186 232.066 162.707 234.016C156.793 238.667 157.137 248.284 163.353 252.074C166.32 253.883 168.84 253.993 207.415 253.996L248.329 254L236.665 265.916C225.112 277.718 225 277.877 225 282.548C225 286.66 225.457 287.695 228.571 290.632C233.165 294.965 237.218 295.101 242.6 291.103C244.745 289.509 256.612 278.043 268.972 265.622L291.444 243.039L287.492 238.77C275.378 225.685 244.108 194.658 241.8 193.433C238.756 191.818 235.587 191.691 232.206 193.048ZM455.401 264.398C455.106 265.167 455.007 270.005 455.182 275.148L455.5 284.5L465.75 284.785L476 285.07V274.035V263H465.969C458.298 263 455.811 263.329 455.401 264.398ZM36 356.34C36 374.782 41.539 388.576 53.966 401.081C81.231 428.517 125.859 423.588 147.051 390.8C153.264 381.187 155.18 374.338 155.745 359.716L156.239 346.932L144.869 347.216L133.5 347.5L132.907 356C132.227 365.743 129.55 372.094 123.511 378.296C115.158 386.874 105.827 390.463 93.633 389.789C83.871 389.249 75.901 385.659 69.316 378.835C62.71 371.99 59.708 364.999 59.189 355.25L58.749 347H47.375H36V356.34ZM369.017 355.75C369.054 374.462 374.512 388.521 386.38 400.477C398.965 413.156 411.603 418.465 429 418.382C437.577 418.341 440.965 417.848 447.5 415.688C462.721 410.659 475.472 399.658 482.45 385.536C486.911 376.508 488.96 367.153 488.983 355.717L489 346.934L477.822 347.217L466.644 347.5L466.442 357C466.121 372.051 461.339 381.844 450.575 389.497C443.227 394.721 437.321 396.308 427.048 395.817C416.589 395.317 409.678 392.31 402.509 385.141C394.676 377.308 391.02 367.013 391.006 352.75L391 347H380H369L369.017 355.75ZM0 359V370H13H26V359V348H13H0V359ZM176 359V370H261H346V359V348H261H176V359ZM499 359V370H505.5H512V359V348H505.5H499V359Z" fill="#666666"/>
</svg>
